<?xml version="1.0" encoding="UTF-8"?> <svg xmlns="http://www.w3.org/2000/svg" width="32" height="32" viewBox="0 0 32 32" fill="none"> <path d="M25.6001 18.5121C25.5947 17.5928 25.4982 16.6764 25.3121 15.7761C25.1402 14.8668 24.8776 13.977 24.5281 13.1201C24.1548 12.1659 23.6715 11.2584 23.0881 10.4161C22.0787 9.86225 21.0036 9.43758 19.8881 9.15211C19.4881 9.05611 19.0721 8.97611 18.6561 8.91211V9.20011C18.9885 9.27716 19.3147 9.37877 19.6321 9.50411C20.8319 9.89822 21.9262 10.5603 22.8321 11.4401C21.7656 10.7327 20.5777 10.2283 19.3281 9.95211C19.1022 9.88883 18.8724 9.84073 18.6401 9.80811C16.9269 9.488 15.1693 9.488 13.4561 9.80811C13.2346 9.8421 13.0155 9.89019 12.8001 9.95211C11.5505 10.2283 10.3626 10.7327 9.2961 11.4401C10.202 10.5603 11.2963 9.89822 12.4961 9.50411C12.8135 9.37877 13.1397 9.27716 13.4721 9.20011V8.91211C13.0561 8.91211 12.6401 9.05611 12.2401 9.15211C11.1247 9.43758 10.0495 9.86225 9.0401 10.4161C8.45666 11.2584 7.9734 12.1659 7.6001 13.1201C7.25063 13.977 6.98798 14.8668 6.8161 15.7761C6.5869 16.672 6.44754 17.5886 6.4001 18.5121C6.39247 18.6347 6.39247 18.7576 6.4001 18.8801C6.39866 19.5972 6.44678 20.3136 6.5441 21.0241C7.92611 21.9731 9.46419 22.6717 11.0881 23.0881C11.5922 22.6089 12.038 22.0719 12.4161 21.4881C11.2183 21.0818 10.1255 20.4152 9.2161 19.5361C10.2908 20.2424 11.4828 20.7517 12.7361 21.0401C14.8928 21.5518 17.1394 21.5518 19.2961 21.0401C20.5494 20.7517 21.7414 20.2424 22.8161 19.5361C21.9067 20.4152 20.8139 21.0818 19.6161 21.4881C19.9942 22.0719 20.44 22.6089 20.9441 23.0881C22.568 22.6717 24.1061 21.9731 25.4881 21.0241C25.5747 20.3129 25.6122 19.5965 25.6001 18.8801C25.6077 18.7576 25.6077 18.6347 25.6001 18.5121ZM13.8881 18.5121C13.5908 18.7294 13.2323 18.847 12.8641 18.8481C12.386 18.8131 11.9382 18.6005 11.6089 18.2521C11.2796 17.9037 11.0925 17.4447 11.0845 16.9654C11.0765 16.486 11.2481 16.021 11.5655 15.6618C11.883 15.3025 12.3234 15.0751 12.8001 15.0241C13.0875 15.0285 13.3693 15.1038 13.6205 15.2434C13.8717 15.3829 14.0846 15.5824 14.2401 15.8241C14.4705 16.152 14.5935 16.5433 14.5921 16.9441C14.6028 17.2412 14.5431 17.5367 14.418 17.8063C14.2929 18.076 14.1058 18.3124 13.8721 18.4961L13.8881 18.5121ZM19.1681 18.8641C18.7999 18.863 18.4414 18.7454 18.1441 18.5281C17.8948 18.3448 17.6943 18.103 17.5604 17.824C17.4265 17.545 17.3632 17.2373 17.3761 16.9281C17.3747 16.5273 17.4977 16.136 17.7281 15.8081C17.8836 15.5664 18.0965 15.3669 18.3477 15.2274C18.5989 15.0878 18.8807 15.0125 19.1681 15.0081C19.645 15.0518 20.0884 15.2721 20.4112 15.6258C20.734 15.9796 20.913 16.4412 20.913 16.9201C20.913 17.399 20.734 17.8606 20.4112 18.2144C20.0884 18.5681 19.645 18.7884 19.1681 18.8321V18.8641Z" fill="#F5F5F5"></path> </svg> 