<svg xmlns="http://www.w3.org/2000/svg" xmlns:xlink="http://www.w3.org/1999/xlink" width="80px" height="33px" viewBox="0 0 80 33" version="1.1">
<g id="surface1">
<path style=" stroke:none;fill-rule:evenodd;fill:rgb(100%,100%,100%);fill-opacity:1;" d="M 80 0 L 0 0 L 0 25.042969 L 80 25.042969 Z M 5.898438 19.894531 L 9.621094 19.894531 L 9.621094 5.308594 L 5.898438 5.308594 Z M 33.8125 19.894531 L 37.535156 19.894531 L 37.535156 5.308594 L 32.414062 5.308594 L 28.410156 14.507812 L 28.039062 14.507812 L 24.054688 5.308594 L 18.867188 5.308594 L 18.867188 19.894531 L 22.589844 19.894531 L 22.589844 11.097656 L 22.894531 11.097656 L 26.722656 19.894531 L 29.746094 19.894531 L 33.507812 11.097656 L 33.8125 11.097656 Z M 48.242188 20.164062 C 52.75 20.164062 56.097656 17.179688 56.097656 12.511719 C 56.097656 7.84375 52.75 4.882812 48.242188 4.882812 C 43.714844 4.882812 40.386719 7.84375 40.386719 12.511719 C 40.386719 17.179688 43.714844 20.164062 48.242188 20.164062 Z M 52.3125 12.511719 C 52.3125 15.09375 50.695312 16.617188 48.242188 16.617188 C 45.792969 16.617188 44.175781 15.09375 44.175781 12.511719 C 44.175781 9.953125 45.792969 8.429688 48.242188 8.429688 C 50.695312 8.429688 52.3125 9.953125 52.3125 12.511719 Z M 68.847656 19.894531 L 74.101562 19.894531 L 74.101562 5.308594 L 70.378906 5.308594 L 70.378906 15.160156 L 70.140625 15.160156 L 64.210938 5.308594 L 58.9375 5.308594 L 58.9375 19.894531 L 62.65625 19.894531 L 62.65625 10.042969 L 62.894531 10.042969 Z M 15.878906 7.507812 C 15.878906 8.449219 15.132812 9.214844 14.214844 9.214844 C 13.296875 9.214844 12.550781 8.449219 12.550781 7.507812 C 12.550781 6.566406 13.296875 5.800781 14.214844 5.800781 C 15.132812 5.800781 15.878906 6.566406 15.878906 7.507812 Z M 15.878906 7.507812 "/>
<path style=" stroke:none;fill-rule:nonzero;fill:rgb(100%,100%,100%);fill-opacity:1;" d="M 3.714844 27.75 L 4.851562 30.804688 L 5.988281 27.75 L 6.871094 27.75 L 6.871094 31.734375 L 6.191406 31.734375 L 6.191406 30.421875 L 6.257812 28.664062 L 5.09375 31.734375 L 4.605469 31.734375 L 3.441406 28.664062 L 3.511719 30.421875 L 3.511719 31.734375 L 2.828125 31.734375 L 2.828125 27.75 Z M 3.714844 27.75 "/>
<path style=" stroke:none;fill-rule:nonzero;fill:rgb(100%,100%,100%);fill-opacity:1;" d="M 9.371094 31.734375 C 9.339844 31.675781 9.316406 31.585938 9.292969 31.457031 C 9.085938 31.679688 8.828125 31.789062 8.523438 31.789062 C 8.230469 31.789062 7.992188 31.703125 7.804688 31.535156 C 7.621094 31.363281 7.527344 31.15625 7.527344 30.90625 C 7.527344 30.589844 7.640625 30.347656 7.871094 30.179688 C 8.105469 30.011719 8.4375 29.925781 8.867188 29.925781 L 9.273438 29.925781 L 9.273438 29.730469 C 9.273438 29.578125 9.230469 29.457031 9.144531 29.363281 C 9.058594 29.269531 8.929688 29.222656 8.757812 29.222656 C 8.609375 29.222656 8.484375 29.261719 8.390625 29.339844 C 8.292969 29.414062 8.246094 29.511719 8.246094 29.625 L 7.589844 29.625 C 7.589844 29.464844 7.640625 29.3125 7.75 29.171875 C 7.855469 29.03125 8 28.917969 8.179688 28.839844 C 8.367188 28.757812 8.570312 28.71875 8.796875 28.71875 C 9.136719 28.71875 9.410156 28.804688 9.617188 28.980469 C 9.820312 29.152344 9.925781 29.398438 9.929688 29.714844 L 9.929688 31.050781 C 9.929688 31.316406 9.964844 31.527344 10.039062 31.6875 L 10.039062 31.734375 Z M 8.648438 31.253906 C 8.777344 31.253906 8.898438 31.222656 9.011719 31.160156 C 9.128906 31.09375 9.214844 31.011719 9.273438 30.902344 L 9.273438 30.34375 L 8.917969 30.34375 C 8.675781 30.34375 8.492188 30.386719 8.367188 30.472656 C 8.246094 30.558594 8.183594 30.679688 8.183594 30.835938 C 8.183594 30.964844 8.226562 31.066406 8.308594 31.144531 C 8.394531 31.21875 8.507812 31.253906 8.648438 31.253906 Z M 8.648438 31.253906 "/>
<path style=" stroke:none;fill-rule:nonzero;fill:rgb(100%,100%,100%);fill-opacity:1;" d="M 10.496094 30.230469 C 10.496094 29.777344 10.601562 29.410156 10.808594 29.132812 C 11.019531 28.855469 11.296875 28.71875 11.652344 28.71875 C 11.960938 28.71875 12.210938 28.828125 12.402344 29.046875 L 12.402344 27.53125 L 13.058594 27.53125 L 13.058594 31.734375 L 12.464844 31.734375 L 12.433594 31.425781 C 12.234375 31.667969 11.972656 31.789062 11.644531 31.789062 C 11.300781 31.789062 11.023438 31.648438 10.8125 31.371094 C 10.601562 31.089844 10.496094 30.710938 10.496094 30.230469 Z M 11.152344 30.289062 C 11.152344 30.589844 11.210938 30.824219 11.324219 30.996094 C 11.4375 31.164062 11.601562 31.246094 11.8125 31.246094 C 12.082031 31.246094 12.277344 31.125 12.402344 30.882812 L 12.402344 29.617188 C 12.28125 29.382812 12.085938 29.261719 11.816406 29.261719 C 11.605469 29.261719 11.441406 29.347656 11.324219 29.519531 C 11.210938 29.691406 11.152344 29.945312 11.152344 30.289062 Z M 11.152344 30.289062 "/>
<path style=" stroke:none;fill-rule:nonzero;fill:rgb(100%,100%,100%);fill-opacity:1;" d="M 15.035156 31.789062 C 14.617188 31.789062 14.28125 31.65625 14.019531 31.390625 C 13.761719 31.125 13.632812 30.773438 13.632812 30.332031 L 13.632812 30.25 C 13.632812 29.953125 13.691406 29.6875 13.800781 29.457031 C 13.914062 29.222656 14.074219 29.042969 14.277344 28.914062 C 14.480469 28.78125 14.710938 28.71875 14.960938 28.71875 C 15.359375 28.71875 15.667969 28.847656 15.882812 29.105469 C 16.101562 29.359375 16.210938 29.726562 16.210938 30.195312 L 16.210938 30.464844 L 14.296875 30.464844 C 14.316406 30.707031 14.398438 30.902344 14.539062 31.042969 C 14.679688 31.1875 14.859375 31.257812 15.074219 31.257812 C 15.375 31.257812 15.621094 31.136719 15.808594 30.886719 L 16.164062 31.230469 C 16.046875 31.40625 15.890625 31.546875 15.691406 31.644531 C 15.5 31.742188 15.277344 31.789062 15.035156 31.789062 Z M 14.957031 29.25 C 14.777344 29.25 14.628906 29.316406 14.519531 29.441406 C 14.410156 29.570312 14.339844 29.75 14.308594 29.976562 L 15.5625 29.976562 L 15.5625 29.929688 C 15.546875 29.707031 15.488281 29.539062 15.382812 29.425781 C 15.28125 29.308594 15.140625 29.25 14.957031 29.25 Z M 14.957031 29.25 "/>
<path style=" stroke:none;fill-rule:nonzero;fill:rgb(100%,100%,100%);fill-opacity:1;" d="M 20.671875 30.285156 C 20.671875 30.742188 20.570312 31.109375 20.367188 31.382812 C 20.164062 31.652344 19.886719 31.789062 19.53125 31.789062 C 19.1875 31.789062 18.921875 31.664062 18.730469 31.414062 L 18.695312 31.734375 L 18.101562 31.734375 L 18.101562 27.53125 L 18.757812 27.53125 L 18.757812 29.058594 C 18.949219 28.832031 19.203125 28.71875 19.523438 28.71875 C 19.882812 28.71875 20.164062 28.851562 20.367188 29.121094 C 20.570312 29.386719 20.671875 29.761719 20.671875 30.246094 Z M 20.015625 30.226562 C 20.015625 29.90625 19.957031 29.664062 19.847656 29.503906 C 19.734375 29.34375 19.574219 29.261719 19.359375 29.261719 C 19.074219 29.261719 18.875 29.386719 18.757812 29.640625 L 18.757812 30.859375 C 18.875 31.117188 19.078125 31.246094 19.367188 31.246094 C 19.570312 31.246094 19.730469 31.167969 19.839844 31.015625 C 19.953125 30.859375 20.011719 30.625 20.015625 30.3125 Z M 20.015625 30.226562 "/>
<path style=" stroke:none;fill-rule:nonzero;fill:rgb(100%,100%,100%);fill-opacity:1;" d="M 22.21875 30.78125 L 22.8125 28.773438 L 23.511719 28.773438 L 22.351562 32.183594 C 22.171875 32.679688 21.867188 32.929688 21.441406 32.929688 C 21.34375 32.929688 21.238281 32.914062 21.125 32.882812 L 21.125 32.367188 L 21.25 32.375 C 21.414062 32.375 21.539062 32.34375 21.621094 32.28125 C 21.707031 32.222656 21.773438 32.121094 21.824219 31.976562 L 21.917969 31.71875 L 20.890625 28.773438 L 21.597656 28.773438 Z M 22.21875 30.78125 "/>
<path style=" stroke:none;fill-rule:nonzero;fill:rgb(100%,100%,100%);fill-opacity:1;" d="M 26.058594 31.734375 L 25.378906 31.734375 L 25.378906 27.75 L 26.058594 27.75 Z M 26.058594 31.734375 "/>
<path style=" stroke:none;fill-rule:nonzero;fill:rgb(100%,100%,100%);fill-opacity:1;" d="M 27.789062 27.75 L 28.925781 30.804688 L 30.058594 27.75 L 30.945312 27.75 L 30.945312 31.734375 L 30.261719 31.734375 L 30.261719 30.421875 L 30.328125 28.664062 L 29.167969 31.734375 L 28.675781 31.734375 L 27.515625 28.664062 L 27.582031 30.421875 L 27.582031 31.734375 L 26.902344 31.734375 L 26.902344 27.75 Z M 27.789062 27.75 "/>
<path style=" stroke:none;fill-rule:nonzero;fill:rgb(100%,100%,100%);fill-opacity:1;" d="M 34.902344 29.84375 C 34.902344 30.234375 34.832031 30.578125 34.699219 30.875 C 34.566406 31.167969 34.375 31.394531 34.125 31.554688 C 33.878906 31.710938 33.59375 31.789062 33.273438 31.789062 C 32.953125 31.789062 32.667969 31.710938 32.417969 31.554688 C 32.167969 31.394531 31.972656 31.167969 31.835938 30.878906 C 31.703125 30.585938 31.632812 30.25 31.632812 29.867188 L 31.632812 29.644531 C 31.632812 29.253906 31.699219 28.910156 31.835938 28.613281 C 31.972656 28.316406 32.164062 28.089844 32.410156 27.933594 C 32.660156 27.773438 32.945312 27.695312 33.265625 27.695312 C 33.585938 27.695312 33.871094 27.773438 34.117188 27.929688 C 34.367188 28.085938 34.558594 28.308594 34.695312 28.601562 C 34.832031 28.894531 34.898438 29.234375 34.902344 29.625 Z M 34.214844 29.636719 C 34.214844 29.195312 34.132812 28.859375 33.96875 28.621094 C 33.800781 28.386719 33.570312 28.269531 33.265625 28.269531 C 32.96875 28.269531 32.738281 28.386719 32.570312 28.621094 C 32.40625 28.855469 32.320312 29.1875 32.316406 29.617188 L 32.316406 29.84375 C 32.316406 30.285156 32.398438 30.621094 32.566406 30.859375 C 32.738281 31.101562 32.972656 31.21875 33.273438 31.21875 C 33.574219 31.21875 33.808594 31.101562 33.96875 30.871094 C 34.132812 30.636719 34.214844 30.292969 34.214844 29.84375 Z M 34.214844 29.636719 "/>
<path style=" stroke:none;fill-rule:nonzero;fill:rgb(100%,100%,100%);fill-opacity:1;" d="M 38.707031 31.734375 L 38.023438 31.734375 L 36.265625 28.90625 L 36.265625 31.734375 L 35.582031 31.734375 L 35.582031 27.75 L 36.265625 27.75 L 38.027344 30.585938 L 38.027344 27.75 L 38.707031 27.75 Z M 38.707031 31.734375 "/>
<path style=" stroke:none;fill-rule:nonzero;fill:rgb(100%,100%,100%);fill-opacity:1;" d="M 40.898438 31.734375 L 40.898438 27.75 L 42.0625 27.75 C 42.410156 27.75 42.71875 27.828125 42.984375 27.984375 C 43.257812 28.140625 43.464844 28.363281 43.613281 28.652344 C 43.761719 28.941406 43.835938 29.269531 43.835938 29.644531 L 43.835938 29.84375 C 43.835938 30.21875 43.761719 30.554688 43.609375 30.839844 C 43.464844 31.125 43.25 31.347656 42.976562 31.5 C 42.699219 31.65625 42.386719 31.734375 42.03125 31.734375 Z M 41.582031 28.308594 L 41.582031 31.179688 L 42.027344 31.179688 C 42.386719 31.179688 42.664062 31.066406 42.851562 30.84375 C 43.046875 30.613281 43.144531 30.289062 43.148438 29.863281 L 43.148438 29.640625 C 43.148438 29.207031 43.054688 28.878906 42.871094 28.648438 C 42.683594 28.421875 42.414062 28.308594 42.0625 28.308594 Z M 41.582031 28.308594 "/>
<path style=" stroke:none;fill-rule:nonzero;fill:rgb(100%,100%,100%);fill-opacity:1;" d="M 45.742188 31.789062 C 45.328125 31.789062 44.988281 31.65625 44.730469 31.390625 C 44.472656 31.125 44.339844 30.773438 44.339844 30.332031 L 44.339844 30.25 C 44.339844 29.953125 44.398438 29.6875 44.507812 29.457031 C 44.625 29.222656 44.78125 29.042969 44.984375 28.914062 C 45.191406 28.78125 45.417969 28.71875 45.667969 28.71875 C 46.066406 28.71875 46.375 28.847656 46.589844 29.105469 C 46.808594 29.359375 46.917969 29.726562 46.917969 30.195312 L 46.917969 30.464844 L 45.003906 30.464844 C 45.023438 30.707031 45.105469 30.902344 45.246094 31.042969 C 45.386719 31.1875 45.566406 31.257812 45.78125 31.257812 C 46.082031 31.257812 46.328125 31.136719 46.515625 30.886719 L 46.871094 31.230469 C 46.753906 31.40625 46.597656 31.546875 46.402344 31.644531 C 46.207031 31.742188 45.988281 31.789062 45.742188 31.789062 Z M 45.664062 29.25 C 45.484375 29.25 45.339844 29.316406 45.226562 29.441406 C 45.117188 29.570312 45.046875 29.75 45.015625 29.976562 L 46.269531 29.976562 L 46.269531 29.929688 C 46.253906 29.707031 46.195312 29.539062 46.09375 29.425781 C 45.988281 29.308594 45.847656 29.25 45.664062 29.25 Z M 45.664062 29.25 "/>
<path style=" stroke:none;fill-rule:nonzero;fill:rgb(100%,100%,100%);fill-opacity:1;" d="M 49.070312 30.929688 C 49.070312 30.8125 49.023438 30.71875 48.925781 30.660156 C 48.832031 30.597656 48.671875 30.542969 48.445312 30.496094 C 48.222656 30.445312 48.035156 30.386719 47.886719 30.3125 C 47.558594 30.152344 47.394531 29.921875 47.394531 29.617188 C 47.394531 29.359375 47.5 29.148438 47.714844 28.976562 C 47.925781 28.804688 48.195312 28.71875 48.523438 28.71875 C 48.875 28.71875 49.15625 28.804688 49.371094 28.980469 C 49.589844 29.15625 49.695312 29.382812 49.695312 29.664062 L 49.039062 29.664062 C 49.039062 29.535156 48.992188 29.429688 48.898438 29.34375 C 48.804688 29.257812 48.679688 29.214844 48.523438 29.214844 C 48.382812 29.214844 48.261719 29.25 48.171875 29.316406 C 48.082031 29.386719 48.035156 29.476562 48.035156 29.589844 C 48.035156 29.691406 48.078125 29.769531 48.164062 29.828125 C 48.246094 29.882812 48.417969 29.941406 48.675781 30 C 48.933594 30.054688 49.136719 30.125 49.28125 30.203125 C 49.429688 30.28125 49.539062 30.378906 49.609375 30.488281 C 49.683594 30.601562 49.71875 30.734375 49.71875 30.894531 C 49.71875 31.160156 49.609375 31.375 49.390625 31.542969 C 49.171875 31.707031 48.886719 31.789062 48.535156 31.789062 C 48.292969 31.789062 48.078125 31.746094 47.890625 31.65625 C 47.703125 31.570312 47.558594 31.449219 47.453125 31.296875 C 47.347656 31.144531 47.296875 30.976562 47.296875 30.800781 L 47.933594 30.800781 C 47.945312 30.957031 48.003906 31.078125 48.109375 31.164062 C 48.21875 31.25 48.363281 31.289062 48.542969 31.289062 C 48.714844 31.289062 48.847656 31.257812 48.9375 31.191406 C 49.027344 31.125 49.070312 31.039062 49.070312 30.929688 Z M 49.070312 30.929688 "/>
<path style=" stroke:none;fill-rule:nonzero;fill:rgb(100%,100%,100%);fill-opacity:1;" d="M 50.992188 31.734375 L 50.335938 31.734375 L 50.335938 28.773438 L 50.992188 28.773438 Z M 50.296875 28.003906 C 50.296875 27.902344 50.328125 27.816406 50.390625 27.75 C 50.453125 27.679688 50.546875 27.648438 50.664062 27.648438 C 50.785156 27.648438 50.875 27.679688 50.941406 27.75 C 51.007812 27.816406 51.039062 27.902344 51.039062 28.003906 C 51.039062 28.105469 51.007812 28.1875 50.941406 28.253906 C 50.875 28.320312 50.785156 28.355469 50.664062 28.355469 C 50.546875 28.355469 50.453125 28.320312 50.390625 28.253906 C 50.328125 28.1875 50.296875 28.105469 50.296875 28.003906 Z M 50.296875 28.003906 "/>
<path style=" stroke:none;fill-rule:nonzero;fill:rgb(100%,100%,100%);fill-opacity:1;" d="M 51.597656 30.230469 C 51.597656 29.773438 51.703125 29.40625 51.914062 29.132812 C 52.128906 28.855469 52.414062 28.71875 52.769531 28.71875 C 53.101562 28.71875 53.363281 28.835938 53.554688 29.070312 L 53.585938 28.773438 L 54.179688 28.773438 L 54.179688 31.644531 C 54.179688 32.03125 54.058594 32.339844 53.816406 32.5625 C 53.578125 32.789062 53.257812 32.898438 52.851562 32.898438 C 52.636719 32.898438 52.425781 32.855469 52.222656 32.761719 C 52.019531 32.675781 51.863281 32.554688 51.757812 32.410156 L 52.066406 32.011719 C 52.269531 32.253906 52.519531 32.375 52.8125 32.375 C 53.03125 32.375 53.203125 32.316406 53.332031 32.195312 C 53.457031 32.074219 53.519531 31.898438 53.519531 31.667969 L 53.519531 31.46875 C 53.332031 31.683594 53.078125 31.789062 52.761719 31.789062 C 52.421875 31.789062 52.140625 31.652344 51.921875 31.375 C 51.703125 31.101562 51.597656 30.71875 51.597656 30.230469 Z M 52.25 30.289062 C 52.25 30.585938 52.3125 30.820312 52.429688 30.992188 C 52.550781 31.164062 52.71875 31.246094 52.929688 31.246094 C 53.195312 31.246094 53.390625 31.132812 53.519531 30.902344 L 53.519531 29.597656 C 53.394531 29.375 53.199219 29.261719 52.9375 29.261719 C 52.71875 29.261719 52.550781 29.347656 52.429688 29.523438 C 52.3125 29.695312 52.25 29.953125 52.25 30.289062 Z M 52.25 30.289062 "/>
<path style=" stroke:none;fill-rule:nonzero;fill:rgb(100%,100%,100%);fill-opacity:1;" d="M 55.464844 28.773438 L 55.484375 29.113281 C 55.703125 28.851562 55.984375 28.71875 56.335938 28.71875 C 56.945312 28.71875 57.257812 29.070312 57.269531 29.777344 L 57.269531 31.734375 L 56.609375 31.734375 L 56.609375 29.816406 C 56.609375 29.628906 56.570312 29.488281 56.488281 29.398438 C 56.410156 29.308594 56.277344 29.261719 56.097656 29.261719 C 55.832031 29.261719 55.632812 29.382812 55.503906 29.625 L 55.503906 31.734375 L 54.847656 31.734375 L 54.847656 28.773438 Z M 55.464844 28.773438 "/>
<path style=" stroke:none;fill-rule:nonzero;fill:rgb(100%,100%,100%);fill-opacity:1;" d="M 61.589844 30.804688 L 60.0625 30.804688 L 59.746094 31.734375 L 59.03125 31.734375 L 60.519531 27.75 L 61.136719 27.75 L 62.625 31.734375 L 61.910156 31.734375 Z M 60.253906 30.25 L 61.398438 30.25 L 60.828125 28.59375 Z M 60.253906 30.25 "/>
<path style=" stroke:none;fill-rule:nonzero;fill:rgb(100%,100%,100%);fill-opacity:1;" d="M 62.898438 30.230469 C 62.898438 29.773438 63.003906 29.40625 63.214844 29.132812 C 63.429688 28.855469 63.714844 28.71875 64.070312 28.71875 C 64.402344 28.71875 64.664062 28.835938 64.855469 29.070312 L 64.886719 28.773438 L 65.476562 28.773438 L 65.476562 31.644531 C 65.476562 32.03125 65.359375 32.339844 65.117188 32.5625 C 64.878906 32.789062 64.558594 32.898438 64.152344 32.898438 C 63.9375 32.898438 63.726562 32.855469 63.523438 32.761719 C 63.316406 32.675781 63.164062 32.554688 63.054688 32.410156 L 63.367188 32.011719 C 63.570312 32.253906 63.820312 32.375 64.113281 32.375 C 64.332031 32.375 64.503906 32.316406 64.632812 32.195312 C 64.757812 32.074219 64.820312 31.898438 64.820312 31.667969 L 64.820312 31.46875 C 64.632812 31.683594 64.378906 31.789062 64.0625 31.789062 C 63.71875 31.789062 63.441406 31.652344 63.222656 31.375 C 63.003906 31.101562 62.898438 30.71875 62.898438 30.230469 Z M 63.550781 30.289062 C 63.550781 30.585938 63.609375 30.820312 63.730469 30.992188 C 63.851562 31.164062 64.019531 31.246094 64.230469 31.246094 C 64.496094 31.246094 64.691406 31.132812 64.820312 30.902344 L 64.820312 29.597656 C 64.695312 29.375 64.5 29.261719 64.238281 29.261719 C 64.019531 29.261719 63.851562 29.347656 63.730469 29.523438 C 63.609375 29.695312 63.550781 29.953125 63.550781 30.289062 Z M 63.550781 30.289062 "/>
<path style=" stroke:none;fill-rule:nonzero;fill:rgb(100%,100%,100%);fill-opacity:1;" d="M 67.445312 31.789062 C 67.027344 31.789062 66.691406 31.65625 66.429688 31.390625 C 66.171875 31.125 66.042969 30.773438 66.042969 30.332031 L 66.042969 30.25 C 66.042969 29.953125 66.101562 29.6875 66.210938 29.457031 C 66.324219 29.222656 66.484375 29.042969 66.6875 28.914062 C 66.890625 28.78125 67.117188 28.71875 67.371094 28.71875 C 67.769531 28.71875 68.074219 28.847656 68.292969 29.105469 C 68.511719 29.359375 68.621094 29.726562 68.621094 30.195312 L 68.621094 30.464844 L 66.707031 30.464844 C 66.726562 30.707031 66.808594 30.902344 66.949219 31.042969 C 67.089844 31.1875 67.269531 31.257812 67.484375 31.257812 C 67.785156 31.257812 68.03125 31.136719 68.21875 30.886719 L 68.574219 31.230469 C 68.457031 31.40625 68.300781 31.546875 68.101562 31.644531 C 67.910156 31.742188 67.6875 31.789062 67.445312 31.789062 Z M 67.367188 29.25 C 67.1875 29.25 67.039062 29.316406 66.929688 29.441406 C 66.820312 29.570312 66.75 29.75 66.71875 29.976562 L 67.96875 29.976562 L 67.96875 29.929688 C 67.957031 29.707031 67.898438 29.539062 67.792969 29.425781 C 67.691406 29.308594 67.550781 29.25 67.367188 29.25 Z M 67.367188 29.25 "/>
<path style=" stroke:none;fill-rule:nonzero;fill:rgb(100%,100%,100%);fill-opacity:1;" d="M 69.742188 28.773438 L 69.761719 29.113281 C 69.976562 28.851562 70.261719 28.71875 70.613281 28.71875 C 71.222656 28.71875 71.535156 29.070312 71.546875 29.777344 L 71.546875 31.734375 L 70.886719 31.734375 L 70.886719 29.816406 C 70.886719 29.628906 70.847656 29.488281 70.765625 29.398438 C 70.6875 29.308594 70.554688 29.261719 70.375 29.261719 C 70.109375 29.261719 69.910156 29.382812 69.78125 29.625 L 69.78125 31.734375 L 69.125 31.734375 L 69.125 28.773438 Z M 69.742188 28.773438 "/>
<path style=" stroke:none;fill-rule:nonzero;fill:rgb(100%,100%,100%);fill-opacity:1;" d="M 73.421875 31.257812 C 73.585938 31.257812 73.722656 31.210938 73.828125 31.113281 C 73.9375 31.015625 73.996094 30.898438 74.003906 30.753906 L 74.621094 30.753906 C 74.613281 30.9375 74.558594 31.109375 74.453125 31.273438 C 74.34375 31.429688 74.199219 31.554688 74.019531 31.648438 C 73.835938 31.742188 73.640625 31.789062 73.429688 31.789062 C 73.019531 31.789062 72.695312 31.65625 72.453125 31.386719 C 72.214844 31.117188 72.09375 30.746094 72.09375 30.273438 L 72.09375 30.207031 C 72.09375 29.757812 72.214844 29.394531 72.453125 29.125 C 72.691406 28.855469 73.015625 28.71875 73.425781 28.71875 C 73.773438 28.71875 74.058594 28.820312 74.277344 29.027344 C 74.496094 29.230469 74.609375 29.5 74.621094 29.835938 L 74.003906 29.835938 C 73.996094 29.664062 73.9375 29.527344 73.828125 29.414062 C 73.722656 29.304688 73.585938 29.25 73.421875 29.25 C 73.207031 29.25 73.042969 29.332031 72.929688 29.488281 C 72.8125 29.640625 72.753906 29.878906 72.753906 30.195312 L 72.753906 30.304688 C 72.753906 30.625 72.808594 30.863281 72.921875 31.023438 C 73.039062 31.179688 73.203125 31.257812 73.421875 31.257812 Z M 73.421875 31.257812 "/>
<path style=" stroke:none;fill-rule:nonzero;fill:rgb(100%,100%,100%);fill-opacity:1;" d="M 76.144531 30.78125 L 76.738281 28.773438 L 77.4375 28.773438 L 76.273438 32.183594 C 76.097656 32.679688 75.792969 32.929688 75.367188 32.929688 C 75.269531 32.929688 75.164062 32.914062 75.050781 32.882812 L 75.050781 32.367188 L 75.175781 32.375 C 75.339844 32.375 75.464844 32.34375 75.546875 32.28125 C 75.632812 32.222656 75.699219 32.121094 75.746094 31.976562 L 75.84375 31.71875 L 74.8125 28.773438 L 75.523438 28.773438 Z M 76.144531 30.78125 "/>
</g>
</svg>
