<?xml version="1.0" encoding="UTF-8"?> <svg xmlns="http://www.w3.org/2000/svg" width="32" height="32" viewBox="0 0 32 32" fill="none"> <path d="M11.872 8.3519C11.872 8.73797 11.7575 9.11537 11.543 9.43637C11.3286 9.75738 11.0237 10.0076 10.667 10.1553C10.3103 10.3031 9.91785 10.3417 9.5392 10.2664C9.16055 10.1911 8.81274 10.0052 8.53975 9.73217C8.26675 9.45918 8.08084 9.11137 8.00553 8.73272C7.93021 8.35407 7.96886 7.96159 8.11661 7.6049C8.26435 7.24822 8.51454 6.94336 8.83555 6.72887C9.15655 6.51438 9.53395 6.3999 9.92002 6.3999C10.4377 6.3999 10.9342 6.60556 11.3003 6.97163C11.6664 7.3377 11.872 7.8342 11.872 8.3519Z" fill="#F5F5F5"></path> <path d="M11.616 11.7439H8.224V22.3999H11.616V11.7439Z" fill="#F5F5F5"></path> <path d="M23.9999 15.008V22.4H20.6399V16.224C20.6286 15.782 20.4586 15.3588 20.1609 15.0319C19.8632 14.7051 19.4578 14.4963 19.0188 14.4438C18.5797 14.3914 18.1365 14.4988 17.7702 14.7463C17.4039 14.9939 17.139 15.3651 17.0239 15.792V22.4H13.6479V11.744H17.0239V13.088C17.3883 12.5826 17.8698 12.173 18.4271 11.8944C18.9844 11.6157 19.6009 11.4763 20.2239 11.488C20.7141 11.4844 21.2013 11.5656 21.6639 11.728C22.3407 11.9721 22.927 12.4169 23.3444 13.003C23.7618 13.5891 23.9905 14.2885 23.9999 15.008Z" fill="#F5F5F5"></path> </svg> 