<?xml version="1.0" encoding="UTF-8"?> <svg xmlns="http://www.w3.org/2000/svg" width="32" height="32" viewBox="0 0 32 32" fill="none"> <path d="M25.6 16.0001C25.6 18.5281 25.168 20.5761 24.64 20.5761C24.112 20.5761 23.664 18.5281 23.664 16.0001C23.664 13.4721 24.096 11.4241 24.64 11.4241C25.184 11.4241 25.6 13.4721 25.6 16.0001Z" fill="#F5F5F5"></path> <path d="M23.1519 16.0001C23.1519 18.8321 21.9039 21.1201 20.3519 21.1201C18.7999 21.1201 17.5999 18.8321 17.5999 16.0001C17.5999 13.1681 18.8479 10.8801 20.3839 10.8801C21.9199 10.8801 23.1519 13.1681 23.1519 16.0001Z" fill="#F5F5F5"></path> <path d="M17.2799 16.0001C17.2799 17.076 16.9609 18.1278 16.3631 19.0224C15.7654 19.917 14.9158 20.6142 13.9217 21.026C12.9277 21.4377 11.8339 21.5454 10.7786 21.3355C9.72339 21.1256 8.75407 20.6075 7.99327 19.8467C7.23248 19.0859 6.71437 18.1166 6.50446 17.0614C6.29456 16.0061 6.40229 14.9123 6.81403 13.9183C7.22577 12.9242 7.92303 12.0746 8.81763 11.4769C9.71224 10.8791 10.764 10.5601 11.8399 10.5601C13.2827 10.5601 14.6664 11.1332 15.6866 12.1534C16.7068 13.1736 17.2799 14.5573 17.2799 16.0001Z" fill="#F5F5F5"></path> </svg> 