<?xml version="1.0" encoding="UTF-8"?> <svg xmlns="http://www.w3.org/2000/svg" width="32" height="32" viewBox="0 0 32 32" fill="none"> <path d="M25.5999 15.2C25.5643 14.7358 25.3751 14.2967 25.0622 13.9519C24.7493 13.6072 24.3305 13.3764 23.8719 13.296C23.5627 13.2423 23.2451 13.262 22.9449 13.3538C22.6447 13.4455 22.3703 13.6066 22.1439 13.824C20.4629 12.6793 18.4816 12.056 16.4479 12.032L17.4399 7.74403C17.4456 7.71635 17.4568 7.6901 17.4729 7.66688C17.4889 7.64367 17.5096 7.62398 17.5336 7.609C17.5575 7.59403 17.5843 7.5841 17.6122 7.5798C17.6401 7.57551 17.6686 7.57695 17.6959 7.58403L20.6079 8.24003C20.6358 8.60949 20.8004 8.95528 21.0697 9.20976C21.339 9.46424 21.6935 9.60911 22.0639 9.61603C22.3231 9.61758 22.5778 9.54837 22.8005 9.41585C23.0233 9.28334 23.2056 9.09254 23.3279 8.86403C23.4401 8.65093 23.5055 8.4164 23.5199 8.17603C23.4896 7.86919 23.3636 7.57964 23.1598 7.34823C22.9561 7.11682 22.6848 6.95525 22.3842 6.8863C22.0837 6.81736 21.7691 6.84453 21.4849 6.96397C21.2006 7.08342 20.961 7.28912 20.7999 7.55203L17.5999 6.84803C17.4154 6.80458 17.2212 6.83565 17.0595 6.9345C16.8977 7.03335 16.7814 7.192 16.7359 7.37603L15.6479 12.032C13.6122 12.0578 11.6299 12.687 9.95194 13.84C9.55424 13.449 9.02158 13.2257 8.46394 13.216C7.9868 13.2153 7.52413 13.3799 7.15466 13.6818C6.78519 13.9838 6.53175 14.4044 6.43744 14.8721C6.34314 15.3398 6.41381 15.8258 6.63742 16.2473C6.86104 16.6688 7.22378 16.9998 7.66394 17.184C7.64749 17.4131 7.64749 17.643 7.66394 17.872C7.73836 18.8724 8.08473 19.8334 8.66564 20.6511C9.24655 21.4689 10.0399 22.1124 10.9599 22.512C12.5519 23.3328 14.321 23.7504 16.1119 23.728C17.9031 23.7524 19.6727 23.3347 21.2639 22.512C22.184 22.1124 22.9773 21.4689 23.5582 20.6511C24.1392 19.8334 24.4855 18.8724 24.5599 17.872C24.5765 17.6483 24.5765 17.4237 24.5599 17.2C24.9058 17.0004 25.1875 16.7061 25.3717 16.3517C25.556 15.9974 25.6351 15.5978 25.5999 15.2ZM11.3119 16.672C11.3711 16.3544 11.5251 16.0621 11.7535 15.8336C11.982 15.6051 12.2743 15.4512 12.5919 15.392C12.7462 15.3755 12.9017 15.3755 13.0559 15.392C13.3875 15.465 13.6842 15.6493 13.8966 15.9141C14.1091 16.179 14.2246 16.5085 14.2239 16.848C14.2197 17.2357 14.0628 17.606 13.7872 17.8786C13.5116 18.1512 13.1396 18.3041 12.7519 18.304C12.5434 18.3033 12.3374 18.2588 12.1472 18.1733C11.957 18.0879 11.7869 17.9634 11.6479 17.808C11.5118 17.6551 11.4111 17.4739 11.3531 17.2776C11.295 17.0812 11.2809 16.8744 11.3119 16.672ZM19.5519 20.88C18.5104 21.5615 17.2927 21.9245 16.0479 21.9245C14.8032 21.9245 13.5855 21.5615 12.5439 20.88C12.4764 20.8087 12.4388 20.7142 12.4388 20.616C12.4388 20.5178 12.4764 20.4233 12.5439 20.352C12.5729 20.3102 12.611 20.2755 12.6554 20.2506C12.6997 20.2256 12.7492 20.2111 12.7999 20.208C12.873 20.1858 12.9509 20.1858 13.0239 20.208C13.913 20.8619 14.9925 21.2049 16.0959 21.184C17.201 21.2353 18.2921 20.9203 19.1999 20.288C19.2713 20.2205 19.3657 20.1829 19.4639 20.1829C19.5622 20.1829 19.6566 20.2205 19.7279 20.288C19.7512 20.3609 19.7512 20.4392 19.7279 20.512C19.7404 20.5841 19.7302 20.6582 19.6987 20.7241C19.6671 20.7901 19.6159 20.8446 19.5519 20.88ZM20.4319 17.872C20.1954 18.1057 19.8882 18.2545 19.5581 18.295C19.2281 18.3355 18.894 18.2656 18.6079 18.096C18.4349 17.9921 18.2856 17.8529 18.1699 17.6875C18.0541 17.5221 17.9744 17.3342 17.9359 17.136C17.8596 16.7588 17.9341 16.3666 18.1435 16.0436C18.3528 15.7206 18.6804 15.4924 19.0559 15.408C19.162 15.3915 19.2699 15.3915 19.3759 15.408C19.7663 15.408 20.1408 15.5631 20.4168 15.8392C20.6929 16.1152 20.8479 16.4896 20.8479 16.88C20.8426 17.252 20.6935 17.6075 20.4319 17.872Z" fill="#F5F5F5"></path> <path d="M19.712 20.576C19.7135 20.6361 19.6996 20.6956 19.6716 20.7488C19.6436 20.8021 19.6024 20.8472 19.552 20.88C18.5104 21.5615 17.2927 21.9244 16.048 21.9244C14.8033 21.9244 13.5856 21.5615 12.544 20.88C12.4765 20.8087 12.4389 20.7142 12.4389 20.616C12.4389 20.5178 12.4765 20.4233 12.544 20.352C12.573 20.3102 12.6111 20.2755 12.6554 20.2506C12.6998 20.2256 12.7492 20.2111 12.8 20.208C12.873 20.1857 12.951 20.1857 13.024 20.208C13.913 20.8619 14.9926 21.2049 16.096 21.184C17.2011 21.2352 18.2922 20.9203 19.2 20.288C19.2713 20.2205 19.3658 20.1829 19.464 20.1829C19.5622 20.1829 19.6567 20.2205 19.728 20.288C19.7449 20.3346 19.7522 20.3841 19.7494 20.4336C19.7467 20.4831 19.7339 20.5316 19.712 20.576Z" fill="black"></path> <path d="M20.8 16.8641C20.7988 17.2417 20.6494 17.6037 20.384 17.8721C20.1475 18.1058 19.8402 18.2546 19.5102 18.2951C19.1802 18.3356 18.846 18.2657 18.56 18.0961C18.3869 17.9922 18.2377 17.853 18.1219 17.6876C18.0061 17.5222 17.9264 17.3343 17.888 17.1361C17.8117 16.7589 17.8862 16.3667 18.0955 16.0437C18.3049 15.7207 18.6324 15.4925 19.008 15.4081C19.114 15.3916 19.222 15.3916 19.328 15.4081C19.7156 15.4081 20.0876 15.561 20.3632 15.8336C20.6388 16.1062 20.7958 16.4765 20.8 16.8641Z" fill="black"></path> <path d="M14.2398 16.864C14.2356 17.2517 14.0787 17.622 13.8031 17.8946C13.5275 18.1672 13.1555 18.3201 12.7678 18.32C12.5593 18.3193 12.3533 18.2748 12.1631 18.1894C11.9729 18.1039 11.8028 17.9795 11.6638 17.824C11.5226 17.6706 11.4177 17.4875 11.3568 17.2881C11.2959 17.0887 11.2805 16.8782 11.3118 16.672C11.371 16.3544 11.5249 16.0621 11.7534 15.8336C11.9819 15.6051 12.2742 15.4512 12.5918 15.392C12.7461 15.3755 12.9016 15.3755 13.0558 15.392C13.3931 15.4624 13.6955 15.6476 13.9114 15.9161C14.1273 16.1845 14.2434 16.5196 14.2398 16.864Z" fill="black"></path> </svg> 