<?xml version="1.0" encoding="UTF-8"?> <svg xmlns="http://www.w3.org/2000/svg" width="32" height="32" viewBox="0 0 32 32" fill="none"> <path d="M24.224 10.2081L22.208 22.4001C22.1725 22.6139 22.0838 22.8154 21.9503 22.9861C21.8167 23.1568 21.6425 23.2913 21.4435 23.3773C21.2445 23.4632 21.0272 23.4979 20.8113 23.4781C20.5955 23.4584 20.3881 23.3848 20.208 23.2641L14.624 19.5041C14.5101 19.4274 14.415 19.326 14.3458 19.2074C14.2765 19.0887 14.235 18.956 14.2242 18.8191C14.2135 18.6822 14.2337 18.5447 14.2836 18.4167C14.3334 18.2887 14.4115 18.1737 14.512 18.0801L19.792 13.0881C19.8421 13.0283 19.8698 12.9529 19.8703 12.8749C19.8709 12.7969 19.8443 12.7211 19.7951 12.6606C19.7459 12.6 19.6772 12.5585 19.6007 12.5431C19.5243 12.5277 19.4448 12.5393 19.376 12.5761L12.352 17.2801C12.0136 17.5029 11.6296 17.6472 11.2282 17.7026C10.8268 17.7579 10.4181 17.7229 10.032 17.6001L7.04001 16.7201C6.9336 16.6744 6.84292 16.5985 6.7792 16.5018C6.71548 16.4052 6.68152 16.2919 6.68152 16.1761C6.68152 16.0603 6.71548 15.947 6.7792 15.8503C6.84292 15.7537 6.9336 15.6778 7.04001 15.6321L16.272 11.6001L22.016 9.2481L22.768 8.9601C22.9509 8.90429 23.145 8.89556 23.3322 8.93472C23.5194 8.97388 23.6936 9.05967 23.8388 9.18413C23.984 9.30859 24.0955 9.46769 24.1628 9.64669C24.2301 9.82569 24.2512 10.0188 24.224 10.2081Z" fill="#F5F5F5"></path> </svg> 