<?xml version="1.0" encoding="UTF-8"?> <svg xmlns="http://www.w3.org/2000/svg" width="32" height="32" viewBox="0 0 32 32" fill="none"> <path d="M25.5999 10.0961C25.209 10.892 24.5684 11.5382 23.7759 11.9361V12.5601C23.7786 14.5891 23.2385 16.5819 22.2117 18.3319C21.185 20.082 19.7088 21.5255 17.9363 22.513C16.1637 23.5004 14.1594 23.9958 12.1309 23.9479C10.1025 23.8999 8.12378 23.3103 6.39993 22.2401C6.67674 22.2642 6.95512 22.2642 7.23193 22.2401C9.07699 22.2357 10.8657 21.6038 12.3039 20.4481C11.4733 20.4075 10.6716 20.1297 9.99392 19.6477C9.31621 19.1656 8.79081 18.4995 8.47993 17.7281C8.74357 17.7793 9.01137 17.8061 9.27993 17.8081C9.57543 17.8007 9.86979 17.7686 10.1599 17.7121C9.40983 17.4513 8.73442 17.0121 8.19193 16.4321C7.48968 15.6944 7.07526 14.7293 7.02393 13.7121C7.51619 13.9861 8.06212 14.1499 8.62393 14.1921C8.72464 14.208 8.82722 14.208 8.92793 14.1921L8.70393 14.0161C8.04502 13.4786 7.55596 12.7617 7.29593 11.9521C7.16872 11.5703 7.10389 11.1705 7.10393 10.7681C7.10996 10.0779 7.29167 9.40061 7.63193 8.8001C7.73887 8.96661 7.86214 9.12205 7.99993 9.2641C8.23993 9.5361 8.49593 9.8081 8.76793 10.0641C9.54631 10.8117 10.4371 11.4326 11.4079 11.9041C11.7891 12.1044 12.1849 12.2756 12.5919 12.4161C12.9121 12.5289 13.2378 12.625 13.5679 12.7041C14.2289 12.8659 14.9041 12.9624 15.5839 12.9921H15.8719C15.6921 12.3158 15.6921 11.6043 15.8719 10.9281C15.9345 10.676 16.0314 10.4338 16.1599 10.2081C16.2879 9.99453 16.4324 9.79125 16.5919 9.6001L16.7039 9.4561C17.0678 9.02987 17.5141 8.68157 18.0159 8.4321C18.2619 8.31532 18.5193 8.22417 18.7839 8.16009L19.1999 8.0961C19.3969 8.07962 19.5949 8.07962 19.7919 8.0961C20.3456 8.09659 20.8932 8.21204 21.3999 8.43513C21.9067 8.65821 22.3616 8.98408 22.7359 9.3921C22.9356 9.37699 23.1337 9.34488 23.3279 9.2961C23.8111 9.20033 24.2757 9.02745 24.7039 8.78409C24.8757 8.69622 25.0368 8.58884 25.1839 8.4641C24.9471 9.30615 24.4344 10.0443 23.7279 10.5601C24.3752 10.522 25.0098 10.3647 25.5999 10.0961Z" fill="#F5F5F5"></path> </svg> 